<svg width="435" height="140" viewBox="0 0 435 140" fill="none" xmlns="http://www.w3.org/2000/svg">
<path d="M22.9787 113H4.40831C3.55325 113 2.77437 113.541 2.6368 114.385C1.55687 121.01 6.86951 132 18.9787 132C36.9787 132 85.1454 132 106.979 132" stroke="#1DBF73" stroke-width="5"/>
<path d="M84.9788 113H19.9788C17.7696 113 15.9788 111.209 15.9788 109V45C15.9788 42.7909 17.7696 41 19.9788 41H53.4788" stroke="#222932" stroke-width="5"/>
<path d="M101.979 41H134.479C136.688 41 138.479 42.7909 138.479 45V65" stroke="#222932" stroke-width="5"/>
<path d="M76.9788 57C76.9788 57 98.3538 36.7436 98.3538 21.375C98.3538 15.706 96.1018 10.2692 92.0932 6.26059C88.0846 2.252 82.6478 0 76.9788 0C71.3098 0 65.8729 2.252 61.8644 6.26059C57.8558 10.2692 55.6038 15.706 55.6038 21.375C55.6038 36.7436 76.9788 57 76.9788 57ZM76.9788 32.0625C74.1443 32.0625 71.4259 30.9365 69.4216 28.9322C67.4173 26.9279 66.2913 24.2095 66.2913 21.375C66.2913 18.5405 67.4173 15.8221 69.4216 13.8178C71.4259 11.8135 74.1443 10.6875 76.9788 10.6875C79.8133 10.6875 82.5317 11.8135 84.536 13.8178C86.5403 15.8221 87.6663 18.5405 87.6663 21.375C87.6663 24.2095 86.5403 26.9279 84.536 28.9322C82.5317 30.9365 79.8133 32.0625 76.9788 32.0625Z" fill="#222932"/>
<path d="M94.0645 90.9142L89.365 95.6138C88.5949 96.3838 88.5825 97.6284 89.337 98.4137L111.065 121.029C111.841 121.836 113.129 121.849 113.922 121.057L153.065 81.9142C153.846 81.1332 153.846 79.8668 153.065 79.0858L147.893 73.9142C147.112 73.1332 145.846 73.1332 145.065 73.9142L113.893 105.086C113.112 105.867 111.846 105.867 111.065 105.086L96.893 90.9142C96.1119 90.1332 94.8456 90.1332 94.0645 90.9142Z" fill="#1DBF73" stroke="#1DBF73"/>
<path d="M118.479 132H138.935C139.232 132 139.524 131.936 139.788 131.801C144.222 129.539 151.421 123.307 148.99 114.333C148.771 113.524 148.008 113 147.17 113C143.515 113 138.573 113 136.326 113" stroke="#1DBF73" stroke-width="5"/>
<path d="M185.879 48.65V56.35H201.329V64H185.879V76H175.979V41H203.429V48.65H185.879ZM216.171 52.15C217.137 50.9167 218.387 50 219.921 49.4C221.487 48.7667 223.271 48.45 225.271 48.45V57C224.404 56.9 223.687 56.85 223.121 56.85C221.087 56.85 219.487 57.4 218.321 58.5C217.187 59.6 216.621 61.2833 216.621 63.55V76H207.121V48.9H216.171V52.15ZM256.647 62.5C256.647 62.5667 256.597 63.35 256.497 64.85H236.797C237.197 66.25 237.963 67.3333 239.097 68.1C240.263 68.8333 241.713 69.2 243.447 69.2C244.747 69.2 245.863 69.0167 246.797 68.65C247.763 68.2833 248.73 67.6833 249.697 66.85L254.697 72.05C252.063 74.9833 248.213 76.45 243.147 76.45C239.98 76.45 237.197 75.85 234.797 74.65C232.397 73.45 230.53 71.7833 229.197 69.65C227.897 67.5167 227.247 65.1 227.247 62.4C227.247 59.7333 227.88 57.35 229.147 55.25C230.447 53.1167 232.23 51.45 234.497 50.25C236.763 49.05 239.313 48.45 242.147 48.45C244.847 48.45 247.297 49.0167 249.497 50.15C251.697 51.25 253.43 52.8667 254.697 55C255.997 57.1 256.647 59.6 256.647 62.5ZM242.197 55.2C240.73 55.2 239.497 55.6167 238.497 56.45C237.53 57.2833 236.913 58.4167 236.647 59.85H247.747C247.48 58.4167 246.847 57.2833 245.847 56.45C244.88 55.6167 243.663 55.2 242.197 55.2ZM288.727 62.5C288.727 62.5667 288.677 63.35 288.577 64.85H268.877C269.277 66.25 270.043 67.3333 271.177 68.1C272.343 68.8333 273.793 69.2 275.527 69.2C276.827 69.2 277.943 69.0167 278.877 68.65C279.843 68.2833 280.81 67.6833 281.777 66.85L286.777 72.05C284.143 74.9833 280.293 76.45 275.227 76.45C272.06 76.45 269.277 75.85 266.877 74.65C264.477 73.45 262.61 71.7833 261.277 69.65C259.977 67.5167 259.327 65.1 259.327 62.4C259.327 59.7333 259.96 57.35 261.227 55.25C262.527 53.1167 264.31 51.45 266.577 50.25C268.843 49.05 271.393 48.45 274.227 48.45C276.927 48.45 279.377 49.0167 281.577 50.15C283.777 51.25 285.51 52.8667 286.777 55C288.077 57.1 288.727 59.6 288.727 62.5ZM274.277 55.2C272.81 55.2 271.577 55.6167 270.577 56.45C269.61 57.2833 268.993 58.4167 268.727 59.85H279.827C279.56 58.4167 278.927 57.2833 277.927 56.45C276.96 55.6167 275.743 55.2 274.277 55.2ZM293.107 38.9H302.607V76H293.107V38.9ZM320.331 48.45C324.831 48.45 328.264 49.4833 330.631 51.55C332.997 53.5833 334.181 56.7167 334.181 60.95V76H325.331V72.5C323.964 75.1333 321.297 76.45 317.331 76.45C315.231 76.45 313.414 76.0833 311.881 75.35C310.347 74.6167 309.181 73.6333 308.381 72.4C307.614 71.1333 307.231 69.7 307.231 68.1C307.231 65.5333 308.214 63.55 310.181 62.15C312.147 60.7167 315.181 60 319.281 60H324.681C324.514 57.1333 322.597 55.7 318.931 55.7C317.631 55.7 316.314 55.9167 314.981 56.35C313.647 56.75 312.514 57.3167 311.581 58.05L308.381 51.6C309.881 50.6 311.697 49.8333 313.831 49.3C315.997 48.7333 318.164 48.45 320.331 48.45ZM319.981 70.45C321.081 70.45 322.047 70.1833 322.881 69.65C323.714 69.1167 324.314 68.3333 324.681 67.3V64.95H320.581C317.814 64.95 316.431 65.8667 316.431 67.7C316.431 68.5333 316.747 69.2 317.381 69.7C318.014 70.2 318.881 70.45 319.981 70.45ZM357.827 48.45C361.194 48.45 363.894 49.45 365.927 51.45C367.994 53.45 369.027 56.4667 369.027 60.5V76H359.527V62.05C359.527 58.35 358.044 56.5 355.077 56.5C353.444 56.5 352.127 57.0333 351.127 58.1C350.161 59.1667 349.677 60.7667 349.677 62.9V76H340.177V48.9H349.227V51.85C350.294 50.75 351.561 49.9167 353.027 49.35C354.494 48.75 356.094 48.45 357.827 48.45ZM389.232 76.45C386.232 76.45 383.549 75.85 381.182 74.65C378.816 73.45 376.966 71.7833 375.632 69.65C374.332 67.5167 373.682 65.1 373.682 62.4C373.682 59.7 374.332 57.3 375.632 55.2C376.966 53.0667 378.816 51.4167 381.182 50.25C383.549 49.05 386.232 48.45 389.232 48.45C392.299 48.45 394.949 49.1167 397.182 50.45C399.416 51.75 400.999 53.5667 401.932 55.9L394.582 59.65C393.349 57.2167 391.549 56 389.182 56C387.482 56 386.066 56.5667 384.932 57.7C383.832 58.8333 383.282 60.4 383.282 62.4C383.282 64.4333 383.832 66.0333 384.932 67.2C386.066 68.3333 387.482 68.9 389.182 68.9C391.549 68.9 393.349 67.6833 394.582 65.25L401.932 69C400.999 71.3333 399.416 73.1667 397.182 74.5C394.949 75.8 392.299 76.45 389.232 76.45ZM432.916 62.5C432.916 62.5667 432.866 63.35 432.766 64.85H413.066C413.466 66.25 414.233 67.3333 415.366 68.1C416.533 68.8333 417.983 69.2 419.716 69.2C421.016 69.2 422.133 69.0167 423.066 68.65C424.033 68.2833 425 67.6833 425.966 66.85L430.966 72.05C428.333 74.9833 424.483 76.45 419.416 76.45C416.25 76.45 413.466 75.85 411.066 74.65C408.666 73.45 406.8 71.7833 405.466 69.65C404.166 67.5167 403.516 65.1 403.516 62.4C403.516 59.7333 404.15 57.35 405.416 55.25C406.716 53.1167 408.5 51.45 410.766 50.25C413.033 49.05 415.583 48.45 418.416 48.45C421.116 48.45 423.566 49.0167 425.766 50.15C427.966 51.25 429.7 52.8667 430.966 55C432.266 57.1 432.916 59.6 432.916 62.5ZM418.466 55.2C417 55.2 415.766 55.6167 414.766 56.45C413.8 57.2833 413.183 58.4167 412.916 59.85H424.016C423.75 58.4167 423.116 57.2833 422.116 56.45C421.15 55.6167 419.933 55.2 418.466 55.2Z" fill="#222932"/>
<path d="M214.529 92V127H210.979V99L197.229 122.55H195.479L181.729 99.15V127H178.179V92H181.229L196.429 117.95L211.479 92H214.529ZM234.383 100.5C237.816 100.5 240.449 101.367 242.283 103.1C244.116 104.8 245.033 107.333 245.033 110.7V127H241.633V122.9C240.833 124.267 239.649 125.333 238.083 126.1C236.549 126.867 234.716 127.25 232.583 127.25C229.649 127.25 227.316 126.55 225.583 125.15C223.849 123.75 222.983 121.9 222.983 119.6C222.983 117.367 223.783 115.567 225.383 114.2C227.016 112.833 229.599 112.15 233.133 112.15H241.483V110.55C241.483 108.283 240.849 106.567 239.583 105.4C238.316 104.2 236.466 103.6 234.033 103.6C232.366 103.6 230.766 103.883 229.233 104.45C227.699 104.983 226.383 105.733 225.283 106.7L223.683 104.05C225.016 102.917 226.616 102.05 228.483 101.45C230.349 100.817 232.316 100.5 234.383 100.5ZM233.133 124.45C235.133 124.45 236.849 124 238.283 123.1C239.716 122.167 240.783 120.833 241.483 119.1V114.8H233.233C228.733 114.8 226.483 116.367 226.483 119.5C226.483 121.033 227.066 122.25 228.233 123.15C229.399 124.017 231.033 124.45 233.133 124.45ZM258.075 105.85C258.908 104.083 260.142 102.75 261.775 101.85C263.442 100.95 265.492 100.5 267.925 100.5V103.95L267.075 103.9C264.308 103.9 262.142 104.75 260.575 106.45C259.008 108.15 258.225 110.533 258.225 113.6V127H254.675V100.7H258.075V105.85ZM284.103 113.8L277.903 119.5V127H274.353V89.9H277.903V115.05L293.603 100.7H298.003L286.753 111.45L299.053 127H294.703L284.103 113.8ZM326.208 114.95H304.208C304.408 117.683 305.458 119.9 307.358 121.6C309.258 123.267 311.658 124.1 314.558 124.1C316.191 124.1 317.691 123.817 319.058 123.25C320.424 122.65 321.608 121.783 322.608 120.65L324.608 122.95C323.441 124.35 321.974 125.417 320.208 126.15C318.474 126.883 316.558 127.25 314.458 127.25C311.758 127.25 309.358 126.683 307.258 125.55C305.191 124.383 303.574 122.783 302.408 120.75C301.241 118.717 300.658 116.417 300.658 113.85C300.658 111.283 301.208 108.983 302.308 106.95C303.441 104.917 304.974 103.333 306.908 102.2C308.874 101.067 311.074 100.5 313.508 100.5C315.941 100.5 318.124 101.067 320.058 102.2C321.991 103.333 323.508 104.917 324.608 106.95C325.708 108.95 326.258 111.25 326.258 113.85L326.208 114.95ZM313.508 103.55C310.974 103.55 308.841 104.367 307.108 106C305.408 107.6 304.441 109.7 304.208 112.3H322.858C322.624 109.7 321.641 107.6 319.908 106C318.208 104.367 316.074 103.55 313.508 103.55ZM347.333 125.4C346.667 126 345.833 126.467 344.833 126.8C343.867 127.1 342.85 127.25 341.783 127.25C339.317 127.25 337.417 126.583 336.083 125.25C334.75 123.917 334.083 122.033 334.083 119.6V103.7H329.383V100.7H334.083V94.95H337.633V100.7H345.633V103.7H337.633V119.4C337.633 120.967 338.017 122.167 338.783 123C339.583 123.8 340.717 124.2 342.183 124.2C342.917 124.2 343.617 124.083 344.283 123.85C344.983 123.617 345.583 123.283 346.083 122.85L347.333 125.4Z" fill="#1DBF73"/>
</svg>
