<svg width="847" height="369" viewBox="0 0 847 369" fill="none" xmlns="http://www.w3.org/2000/svg">
<path d="M417.949 255.167L342.949 180.306V251H319.616V121.833L394.616 196.556V126H417.949V255.167ZM483.643 253.778C474.292 253.778 466.051 251.833 458.921 247.944C451.792 244.056 446.236 238.731 442.254 231.972C438.273 225.12 436.282 217.296 436.282 208.5C436.282 200.074 438.227 192.62 442.116 186.139C446.004 179.565 451.236 174.38 457.81 170.583C464.477 166.787 471.838 164.889 479.893 164.889C488.134 164.889 495.495 166.787 501.977 170.583C508.458 174.287 513.551 179.38 517.254 185.861C521.051 192.343 522.949 199.704 522.949 207.944V216.417H472.116C469.801 216.417 467.579 216.278 465.449 216C463.319 215.722 461.19 215.398 459.06 215.028C460.171 220.583 462.903 225.12 467.254 228.639C471.699 232.065 477.347 233.778 484.199 233.778C489.477 233.778 494.199 232.713 498.366 230.583C502.625 228.454 506.097 225.815 508.782 222.667L514.06 244.333C509.893 247.481 505.171 249.843 499.893 251.417C494.708 252.991 489.292 253.778 483.643 253.778ZM458.504 200.444C463.134 199.426 467.671 198.917 472.116 198.917H486.838C489.43 198.917 491.884 199.009 494.199 199.194C496.514 199.38 498.69 199.704 500.727 200.167C499.338 195.167 496.792 191.231 493.088 188.361C489.477 185.491 484.986 184.056 479.616 184.056C474.523 184.056 470.079 185.537 466.282 188.5C462.579 191.37 459.986 195.352 458.504 200.444ZM546.07 251V186.833H530.514V167.667H546.486V139.889H569.82V167.667H586.347V186.833H570.236V251H546.07ZM635.579 253.778C627.338 253.778 619.792 251.787 612.94 247.806C606.088 243.824 600.625 238.454 596.551 231.694C592.57 224.935 590.579 217.481 590.579 209.333C590.579 201.093 592.57 193.639 596.551 186.972C600.625 180.213 606.088 174.843 612.94 170.861C619.792 166.88 627.338 164.889 635.579 164.889C643.912 164.889 651.459 166.88 658.218 170.861C665.07 174.843 670.487 180.213 674.468 186.972C678.542 193.639 680.579 201.093 680.579 209.333C680.579 217.481 678.542 224.935 674.468 231.694C670.487 238.454 665.07 243.824 658.218 247.806C651.459 251.787 643.912 253.778 635.579 253.778ZM635.579 232.111C639.746 232.111 643.496 231.093 646.829 229.056C650.255 227.019 652.94 224.287 654.885 220.861C656.922 217.343 657.94 213.5 657.94 209.333C657.94 205.074 656.922 201.231 654.885 197.806C652.94 194.38 650.255 191.648 646.829 189.611C643.496 187.574 639.746 186.556 635.579 186.556C631.412 186.556 627.616 187.574 624.19 189.611C620.857 191.648 618.172 194.38 616.135 197.806C614.19 201.231 613.218 205.074 613.218 209.333C613.218 213.5 614.19 217.343 616.135 220.861C618.172 224.287 620.857 227.019 624.19 229.056C627.616 231.093 631.412 232.111 635.579 232.111ZM694.746 251V167.667H716.412V181.972C719.283 177.157 722.894 173.454 727.246 170.861C731.69 168.176 736.875 166.833 742.801 166.833L748.079 188.222C746.32 187.667 744.329 187.389 742.107 187.389C735.162 187.389 729.561 189.657 725.301 194.194C721.042 198.639 718.912 205.028 718.912 213.361V251H694.746ZM756.53 292.667L784.307 236.833L750.28 167.667H776.946L791.669 198.222C792.965 201 794.076 203.546 795.002 205.861C796.02 208.083 796.854 210.259 797.502 212.389C798.243 210.259 799.122 208.083 800.141 205.861C801.159 203.546 802.363 201 803.752 198.222L818.752 167.667H844.446L782.502 292.667H756.53Z" fill="url(#paint0_linear_1_11)"/>
<path d="M166.782 260C95.5823 289.2 27.1156 344.5 1.78225 368.5C3.38225 348.9 58.4489 299 85.7823 276.5C65.1156 282.167 19.3823 292.1 1.78225 286.5C77.2823 280.5 142.282 222.5 157.282 183.5C143.682 197.1 113.282 197.833 99.7823 196.5C103.449 195.5 111.682 192.5 115.282 188.5C83.6823 192.9 57.7823 175.667 48.7823 166.5C61.4489 169 91.5823 171.6 110.782 162C27.1197 163.6 3.25621 109.333 1.78225 82C19.9489 95 62.3823 121 86.7823 121C-1.71774 92 -3.71775 33.5 1.78225 0C11.3823 20.4 50.1156 46.8333 68.2823 57.5C93.1156 69 148.382 96.5 170.782 114.5C216.282 155 202.282 217.5 150.282 260C232.282 229 227.282 129.5 189.282 114.5C201.782 81.5 268.782 80.5 282.782 92C263.182 96.4 254.282 113.167 252.282 121C248.449 155.667 225.982 232 166.782 260Z" fill="url(#paint1_linear_1_11)"/>
<defs>
<linearGradient id="paint0_linear_1_11" x1="260.868" y1="203.93" x2="962.622" y2="216.897" gradientUnits="userSpaceOnUse">
<stop stop-color="#00EDFD"/>
<stop offset="0.855769" stop-color="#003CB8"/>
</linearGradient>
<linearGradient id="paint1_linear_1_11" x1="0.282267" y1="-8.36488e-06" x2="282.282" y2="369" gradientUnits="userSpaceOnUse">
<stop stop-color="#00EDFD"/>
<stop offset="0.788462" stop-color="#003CB8"/>
</linearGradient>
</defs>
</svg>
